<svg height="511pt" viewBox="0 -43 511.99731 511" width="511pt" xmlns="http://www.w3.org/2000/svg"><path d="m236.320312 20.511719c-4.453124-8.933594-14.226562-13.902344-24.070312-12.234375l-33.851562 5.738281c-9.84375 1.667969-17.433594 9.578125-18.695313 19.480469l-5.269531 41.375 100.492187-17.03125zm0 0" fill="#b2b0bc"/><path d="m180.433594 64.871094 5.269531-41.375c.558594-4.367188 2.347656-8.34375 5.015625-11.570313l-12.320312 2.089844c-9.84375 1.667969-17.433594 9.578125-18.695313 19.480469l-5.269531 41.375 100.496094-17.03125-2.570313-5.15625zm0 0" fill="#77718c"/><path d="m478.710938 80.128906-24.847657-23.695312c-7.222656-6.886719-18.105469-8.238282-26.792969-3.324219l-36.308593 20.527344 73.765625 70.339843 18.78125-37.238281c4.496094-8.914062 2.628906-19.71875-4.597656-26.609375zm0 0" fill="#b2b0bc"/><path d="m420.765625 89.636719 36.304687-20.527344c2.332032-1.316406 4.824219-2.171875 7.359376-2.601563l-10.5625-10.070312c-7.226563-6.890625-18.105469-8.242188-26.796876-3.328125l-36.308593 20.527344 73.765625 70.339843 4.296875-8.511718zm0 0" fill="#77718c"/><path d="m54.710938 326.425781-17.277344 37.960938c-4.136719 9.085937-1.839844 19.808593 5.652344 26.402343l25.773437 22.6875c7.496094 6.59375 18.421875 7.507813 26.910156 2.253907l35.457031-21.964844zm0 0" fill="#b2b0bc"/><path d="m54.710938 326.425781-1.378907 3.03125 54.890625 48.308594-35.457031 21.964844c-4.9375 3.054687-10.695313 4.011719-16.128906 2.988281l12.222656 10.757812c7.496094 6.59375 18.421875 7.507813 26.910156 2.253907l35.457031-21.964844zm0 0" fill="#77718c"/><path d="m248.972656 407.953125-23.609375 5.902344c-7.007812 1.75-14.414062.824219-20.769531-2.601563l-18.863281-10.15625c-5.25-2.824218-11.238281-3.964844-17.15625-3.261718l-32.007813 3.796874c-9.164062 1.089844-18.304687-2.257812-24.601562-9.003906l-12.753906-13.667968c-2.414063-2.585938-5.28125-4.707032-8.460938-6.261719l-23.824219-11.648438c-8.652343-4.230469-14.636719-12.480469-15.972656-22.019531l-3.386719-24.179688c-.710937-5.078124-2.757812-9.878906-5.929687-13.90625l-21.621094-27.46875c-5.351563-6.800781-7.386719-15.632812-5.550781-24.085937l3.742187-17.21875c1.777344-8.164063-.058593-16.695313-5.03125-23.410156-6.734375-9.089844-7.5625-21.273438-2.117187-31.195313l28.753906-52.398437c3.101562-5.648438 7.992188-10.101563 13.90625-12.660157l15.207031-6.574218c6.800781-2.941406 12.214844-8.375 15.132813-15.183594l5.132812-11.976562c2.878906-6.71875 8.191406-12.101563 14.871094-15.070313l32.667969-14.519531c5.15625-2.292969 10.871093-3.027344 16.441406-2.117188l32.0625 5.234375c3.726563.609375 7.539063.480469 11.21875-.371093l53-12.289063c4.308594-1 8.785156-1 13.09375 0l53.003906 12.289063c3.675781.851562 7.488281.980468 11.214844.371093l32.0625-5.234375c5.570313-.910156 11.285156-.175781 16.441406 2.117188l32.671875 14.519531c6.675782 2.96875 11.988282 8.351563 14.867188 15.070313l5.132812 11.976562c2.917969 6.808594 8.332032 12.242188 15.136719 15.183594l15.203125 6.574218c5.914062 2.558594 10.808594 7.011719 13.90625 12.660157l28.757812 52.398437c5.441407 9.921875 4.613282 22.101563-2.121093 31.195313-4.972657 6.714843-6.804688 15.246093-5.03125 23.410156l3.742187 17.21875c1.839844 8.453125-.195312 17.285156-5.546875 24.085937l-21.625 27.46875c-3.171875 4.027344-5.21875 8.828126-5.929687 13.90625l-3.386719 24.179688c-1.335937 9.539062-7.320313 17.789062-15.972656 22.019531l-23.824219 11.648438c-3.179688 1.554687-6.046875 3.675781-8.460938 6.261719l-12.753906 13.667968c-6.296875 6.746094-15.4375 10.089844-24.601562 9.003906l-32.007813-3.796874c-5.917969-.703126-11.910156.4375-17.15625 3.261718l-18.863281 10.15625c-6.355469 3.425782-13.765625 4.351563-20.769531 2.601563l-23.609375-5.902344c-4.613282-1.15625-9.441406-1.15625-14.054688 0zm0 0" fill="#938ea3"/><path d="m197.015625 133.679688c0-13.609376-15.421875-24.636719-34.449219-24.636719-19.023437 0-34.445312 11.027343-34.445312 24.636719 0 13.605468 15.421875 24.636718 34.445312 24.636718 19.027344 0 34.449219-11.03125 34.449219-24.636718zm0 0" fill="#b2b0bc"/><path d="m158.121094 133.679688c0-9.761719 7.9375-18.195313 19.445312-22.183594-4.535156-1.570313-9.621094-2.457032-15-2.457032-19.027344 0-34.449218 11.03125-34.449218 24.636719 0 13.609375 15.425781 24.640625 34.449218 24.640625 5.378906 0 10.464844-.882812 15-2.457031-11.507812-3.988281-19.445312-12.421875-19.445312-22.179687zm0 0" fill="#77718c"/><path d="m434.039062 296.820312c0-13.605468-15.425781-24.636718-34.449218-24.636718-19.023438 0-34.445313 11.03125-34.445313 24.636718 0 13.605469 15.421875 24.636719 34.445313 24.636719 19.023437 0 34.449218-11.03125 34.449218-24.636719zm0 0" fill="#b2b0bc"/><path d="m395.144531 296.820312c0-9.761718 7.9375-18.195312 19.445313-22.183593-4.535156-1.570313-9.625-2.453125-15-2.453125-19.027344 0-34.449219 11.027344-34.449219 24.636718 0 13.605469 15.425781 24.636719 34.449219 24.636719 5.375 0 10.464844-.882812 15-2.453125-11.507813-3.988281-19.445313-12.421875-19.445313-22.183594zm0 0" fill="#77718c"/><path d="m390.152344 133.679688c0-8.125-9.207032-14.710938-20.566406-14.710938-11.355469 0-20.5625 6.585938-20.5625 14.710938 0 8.121093 9.207031 14.707031 20.5625 14.707031 11.359374 0 20.566406-6.585938 20.566406-14.707031zm0 0" fill="#b2b0bc"/><path d="m367.023438 133.679688c0-5.8125 4.722656-10.820313 11.5625-13.210938-2.71875-.949219-5.765626-1.5-9-1.5-11.355469 0-20.5625 6.585938-20.5625 14.710938 0 8.121093 9.207031 14.707031 20.5625 14.707031 3.234374 0 6.28125-.546875 9-1.5-6.839844-2.386719-11.5625-7.398438-11.5625-13.207031zm0 0" fill="#77718c"/><path d="m151.792969 314.128906c0-8.125-9.207031-14.707031-20.566407-14.707031-11.359374 0-20.566406 6.582031-20.566406 14.707031 0 8.121094 9.207032 14.707032 20.566406 14.707032 11.359376 0 20.566407-6.585938 20.566407-14.707032zm0 0" fill="#b2b0bc"/><path d="m127.664062 314.128906c0-5.953125 4.953126-11.066406 12.0625-13.382812-2.59375-.84375-5.464843-1.324219-8.5-1.324219-11.359374 0-20.566406 6.582031-20.566406 14.707031s9.207032 14.707032 20.566406 14.707032c3.035157 0 5.90625-.480469 8.5-1.328126-7.109374-2.3125-12.0625-7.425781-12.0625-13.378906zm0 0" fill="#77718c"/><path d="m168.929688 232.660156v-17.113281c0-4.144531-3.355469-7.5-7.5-7.5-4.140626 0-7.5 3.355469-7.5 7.5v17.113281c0 4.144532 3.359374 7.503906 7.5 7.503906 4.144531 0 7.5-3.359374 7.5-7.503906zm0 0"/><path d="m350.570312 208.046875c-4.144531 0-7.503906 3.355469-7.503906 7.5v17.113281c0 4.144532 3.359375 7.503906 7.503906 7.503906 4.140626 0 7.5-3.359374 7.5-7.503906v-17.113281c0-4.144531-3.359374-7.5-7.5-7.5zm0 0"/><path d="m273.691406 226.535156c-4.3125 4.933594-10.757812 7.761719-17.691406 7.761719s-13.382812-2.828125-17.695312-7.761719c-2.726563-3.121094-7.464844-3.4375-10.582032-.710937-3.117187 2.726562-3.4375 7.464843-.710937 10.582031 7.160156 8.195312 17.726562 12.890625 28.988281 12.890625s21.828125-4.695313 28.988281-12.890625c2.726563-3.117188 2.40625-7.855469-.710937-10.582031-3.121094-2.726563-7.859375-2.410157-10.585938.710937zm0 0"/><path d="m204.515625 133.703125c0-18.023437-18.429687-32.136719-41.949219-32.136719-23.523437 0-41.949218 14.117188-41.949218 32.136719s18.425781 32.136719 41.949218 32.136719c23.523438 0 41.949219-14.117188 41.949219-32.136719zm-41.949219 17.136719c-14.605468 0-26.949218-7.847656-26.949218-17.136719s12.339843-17.136719 26.949218-17.136719c14.605469 0 26.945313 7.847656 26.945313 17.136719s-12.339844 17.136719-26.945313 17.136719zm0 0"/><path d="m399.589844 328.980469c23.523437 0 41.949218-14.113281 41.949218-32.136719 0-18.019531-18.429687-32.136719-41.949218-32.136719-23.523438 0-41.949219 14.117188-41.949219 32.136719s18.425781 32.136719 41.949219 32.136719zm0-49.273438c14.605468 0 26.945312 7.847657 26.945312 17.136719s-12.339844 17.136719-26.945312 17.136719c-14.609375 0-26.949219-7.847657-26.949219-17.136719s12.339844-17.136719 26.949219-17.136719zm0 0"/><path d="m369.585938 111.492188c-15.738282 0-28.066407 9.757812-28.066407 22.210937s12.328125 22.207031 28.066407 22.207031c15.738281 0 28.066406-9.753906 28.066406-22.207031s-12.328125-22.210937-28.066406-22.210937zm0 29.417968c-7.359376 0-13.0625-3.875-13.0625-7.207031s5.707031-7.207031 13.0625-7.207031c7.359374 0 13.066406 3.875 13.066406 7.207031s-5.707032 7.207031-13.066406 7.207031zm0 0"/><path d="m131.226562 291.945312c-15.738281 0-28.066406 9.753907-28.066406 22.207032s12.328125 22.207031 28.066406 22.207031c15.738282 0 28.066407-9.753906 28.066407-22.207031s-12.328125-22.207032-28.066407-22.207032zm0 29.414063c-7.359374 0-13.066406-3.875-13.066406-7.207031 0-3.332032 5.710938-7.207032 13.066406-7.207032 7.355469 0 13.0625 3.875 13.0625 7.207032 0 3.332031-5.703124 7.207031-13.0625 7.207031zm0 0"/><path d="m30.34375 142.441406c3.632812 1.996094 8.191406.667969 10.183594-2.964844 4.210937-7.667968 7.605468-16.355468 16.167968-20.058593 13.839844-5.984375 27.863282-10.765625 34.257813-25.6875 3.8125-8.894531 6.566406-18.886719 16.152344-23.148438l32.671875-14.519531c3.832031-1.703125 8.046875-2.246094 12.183594-1.570312 0 0 32.0625 5.234374 32.066406 5.234374 4.664062.761719 9.511718.597657 14.117187-.464843 0 0 49.777344-11.542969 49.78125-11.542969 4.347657-1.007812 8.480469-1.78125 12.925781-.75l53 12.292969c4.65625 1.078125 9.40625 1.234375 14.121094.464843l32.066406-5.234374c4.136719-.675782 8.351563-.132813 12.183594 1.570312 0 0 32.65625 14.511719 32.671875 14.519531 4.832031 2.148438 8.910157 6.246094 11.019531 11.167969 2.828126 6.601562 5.109376 13.65625 9.445313 19.46875 5.675781 7.59375 13.902344 11.261719 22.34375 14.914062 6.96875 3.011719 13.988281 5.53125 17.90625 12.667969.3125.570313 28.757813 52.402344 28.757813 52.402344 4.019531 7.328125 3.40625 16.402344-1.570313 23.121094-6.257813 8.453125-8.570313 19.191406-6.335937 29.464843 2.53125 11.636719 7.898437 24.46875-.367188 35.070313 0 0-21.621094 27.464844-21.625 27.46875-8.964844 11.386719-8.917969 27.871094-10.851562 41.6875-.992188 7.082031-5.417969 13.183594-11.839844 16.324219 0 0-23.820313 11.644531-23.824219 11.644531-9.464844 4.628906-16.335937 13.976563-23.402344 21.550781-4.648437 4.980469-11.464843 7.476563-18.234375 6.671875l-25.09375-2.976562c-4.117187-.488281-7.84375 2.453125-8.332031 6.566406s2.449219 7.84375 6.5625 8.332031l25.09375 2.976563c11.417969 1.355469 23.125-2.929688 30.96875-11.335938 5.695313-6.101562 11.378906-14.570312 19.023437-18.308593l23.824219-11.644532c10.910157-5.335937 18.425781-15.695312 20.109375-27.71875 1.4375-10.261718.277344-26.300781 7.78125-34.488281 0 0 21.054688-26.746094 21.613282-27.457031 11.492187-14.597656 6.816406-31.144532 3.253906-47.546875-1.316406-6.050781.042968-12.375 3.726562-17.351563 8.453125-11.410156 9.5-26.824218 2.667969-39.269531l-25.90625-47.203125 8.390625-16.640625c6.027344-11.949219 3.570312-26.179687-6.113281-35.414063 0 0-24.839844-23.683593-24.847657-23.695312-9.5-9.054688-24.246093-10.882812-35.664062-4.429688l-15.625 8.835938-29.4375-13.082031c-6.507812-2.894531-13.664062-3.816407-20.695312-2.667969l-32.0625 5.234375c-2.777344.453125-5.574219.363281-8.316407-.273437l-52.996093-12.292969c-4.535157-1.050781-9.285157-1.207031-13.890626-.488281 0 0-7.3125-14.667969-7.316406-14.675782-5.828125-11.699218-19.148437-18.46875-32.035156-16.285156l-33.855469 5.734375c-13.191406 2.238281-23.191406 12.65625-24.882812 25.933594l-.859375 6.761719c-6.054688-.488282-12.125.53125-17.714844 3.019531 0 0-32.65625 14.511719-32.671875 14.519531-13.410156 5.960938-18.449219 18.34375-23.851563 30.945312-4.515624 10.535157-16.761718 13.652344-26.421874 17.828126-11.789063 5.097656-17.496094 15.921874-23.363282 26.613281-1.992187 3.628906-.664062 8.1875 2.964844 10.179687zm400.417969-82.78125c5.753906-3.253906 13.148437-2.332031 17.925781 2.226563l24.847656 23.695312c4.871094 4.640625 6.105469 11.796875 3.074219 17.800781l-4.699219 9.320313c-.085937-.082031-.179687-.160156-.269531-.242187-3.042969-2.839844-6.558594-5.15625-10.382813-6.808594-9.726562-4.207032-21.859374-7.183594-26.425781-17.832032l-5.128906-11.976562c-1.824219-4.257812-4.40625-8.070312-7.59375-11.292969 0 0 8.648437-4.886719 8.652344-4.890625zm-263.617188-25.191406c.847657-6.671875 5.875-11.910156 12.507813-13.035156 0 0 33.847656-5.738282 33.851562-5.738282 6.460938-1.09375 13.132813 2.230469 16.105469 8.1875l5.667969 11.367188-40.519532 9.398438c-2.714843.628906-5.5625.722656-8.316406.273437l-20.210937-3.300781zm0 0"/><path d="m10.878906 230.605469c-3.609375 16.601562-8.359375 32.800781 3.242188 47.535156 0 0 21.609375 27.449219 21.625 27.46875 5.972656 7.585937 5.71875 19.765625 7.011718 29l-12.152343 26.695313c-5.542969 12.179687-2.519531 26.300781 7.527343 35.140624 0 0 25.765626 22.675782 25.773438 22.683594 9.855469 8.679688 24.648438 9.917969 35.8125 3l23.074219-14.292968c4.699219 1.398437 9.683593 1.859374 14.65625 1.269531 13.914062 0 31.628906-8.429688 44.722656-1.378907 0 0 18.863281 10.15625 18.863281 10.15625 16.363282 8.808594 33.242188 1.496094 49.753906-2.628906 3.410157-.855468 7.011719-.855468 10.421876 0 16.34375 4.085938 33.648437 11.300782 49.753906 2.628906l13.71875-7.390624c3.648437-1.960938 5.011718-6.511719 3.050781-10.160157-1.964844-3.644531-6.515625-5.011719-10.160156-3.046875 0 0-13.710938 7.382813-13.722657 7.390625-11.375 6.125-27.363281-1.066406-39.003906-3.976562-5.789062-1.449219-11.90625-1.449219-17.695312 0-11.703125 2.925781-27.390625 10.226562-39.003906 3.976562 0 0-18.859376-10.15625-18.863282-10.15625-15.605468-8.402343-36.867187-2.296875-53.601562-.308593-13.882813 1.644531-22.640625-11.394532-30.988282-20.339844-3.03125-3.253906-6.65625-5.933594-10.648437-7.882813 0 0-23.820313-11.648437-23.824219-11.648437-6.308594-3.082032-10.867187-9.371094-11.839844-16.324219-1.949218-13.910156-1.777343-30.15625-10.851562-41.683594 0 0-21.605469-27.449219-21.625-27.472656-8.109375-10.304687-2.847656-23.664063-.367188-35.070313 2.234376-10.273437-.074218-21.011718-6.335937-29.464843-4.976563-6.71875-5.589844-15.792969-1.570313-23.121094l8.535157-15.550781c1.992187-3.628906.664062-8.191406-2.96875-10.183594-3.632813-1.992188-8.191407-.664062-10.183594 2.964844l-8.535156 15.550781c-6.828125 12.445313-5.78125 27.859375 2.667969 39.265625 3.6875 4.976562 5.042968 11.300781 3.730468 17.355469zm82.847656 153.5c4.734376 5.070312 9.277344 10.449219 14.304688 15.230469 0 0-16.210938 10.039062-16.210938 10.042968-5.617187 3.476563-13.046874 2.855469-18.003906-1.507812l-25.773437-22.683594c-5.050781-4.445312-6.570313-11.542969-3.785157-17.667969 1.785157-3.914062 3.730469-7.800781 5.34375-11.78125 3.898438 5.023438 8.25 9.25 14.03125 12.078125.007813 0 23.824219 11.644532 23.824219 11.644532 2.261719 1.105468 4.488281 2.734374 6.269531 4.644531zm0 0"/></svg>