<svg height="512pt" viewBox="-75 0 512 512.00327" width="512pt" xmlns="http://www.w3.org/2000/svg"><path d="m355.449219 277.363281-7.464844 79.167969c-7.988281 84.734375-79.121094 149.476562-164.234375 149.476562-14.265625 0-34.875.855469-62.183594-8.011718-25.066406-8.117188-47.523437-22.089844-65.730468-40.296875-29.855469-29.855469-48.320313-71.101563-48.320313-116.65625-1.226563-41.492188 19.390625-118.871094 31.316406-158.769531.753907-2.488282 4.386719-2.078126 4.570313.515624 2.820312 43.109376 59.652344 48.53125 72.335937 10.625 29.910157-89.285156-.730469-158.847656-6.085937-182.777343-.441406-1.957031 1.613281-3.515625 3.375-2.558594 102.300781 55.066406 132.160156 110.371094 140.382812 162.160156 2.332032 14.703125 23.261719 15.433594 26.585938.921875 3.484375-15.257812 2.417968-28.972656 1.214844-36.789062-.335938-2.195313 2.3125-3.570313 3.914062-2.035156 52.515625 50.171874 38.683594 119.023437 22.808594 160.707031-4.128906 10.839843 9.175781 19.917969 17.777344 12.132812 9.582031-8.671875 18.15625-18.445312 25.46875-29.082031 1.289062-1.878906 4.238281-1 4.269531 1.269531zm0 0" fill="#d63030"/><path d="m355.449219 277.363281-7.464844 79.167969c-7.988281 84.734375-79.121094 149.476562-164.234375 149.476562-14.265625 0-34.875.855469-62.183594-8.011718-28.113281-30.652344-45.210937-71.152344-45.210937-115.582032-1.324219-43.523437 21.257812-105.414062 34.046875-147.273437.792968-2.613281 4.699218-2.183594 4.890625.527344.054687.699219.109375 1.386719.164062 2.066406 3.515625 42.125 63.175781 29.886719 76.886719-10.1875 23.875-69.765625 11.746094-128.066406 1.625-163.640625 37.953125 35.199219 53.785156 70.691406 59.441406 106.332031 2.335938 14.699219 23.261719 15.429688 26.585938.921875 3.484375-15.261718 2.417968-28.972656 1.214844-36.792968-.332032-2.191407 2.3125-3.570313 3.914062-2.03125 52.515625 50.171874 38.6875 119.023437 22.8125 160.707031-4.132812 10.839843 9.171875 19.917969 17.777344 12.128906 9.582031-8.667969 18.152344-18.441406 25.464844-29.078125 1.289062-1.878906 4.238281-1 4.269531 1.269531zm0 0" fill="#f44545"/><path d="m197.757812 220.863281c-5.542968-1.273437-11.066406-2.1875-16.546874-2.765625-69.203126-7.285156-131.84375 39.289063-131.214844 101.585938.324218 31.214844 16.742187 64.542968 42.363281 88.273437 2.214844 2.042969 3.457031 4.953125 3.457031 7.972657v36.820312c0 6.039062 4.882813 10.953125 10.921875 10.972656 133.6875.476563 126.105469.480469 127.148438.347656 5.417969-.683593 9.609375-5.3125 9.578125-10.925781l-.152344-36.65625c-.007812-3.007812 1.199219-5.917969 3.40625-7.972656 25.113281-23.546875 40.847656-56.765625 40.53125-87.957031-.800781-79.382813-89.320312-99.582032-89.492188-99.695313zm0 0" fill="#4b5055"/><path d="m197.757812 220.863281c-5.542968-1.273437-11.066406-2.1875-16.546874-2.765625-57 6.039063-103.277344 47.996094-102.738282 101.585938.328125 31.214844 16.742188 64.542968 42.363282 88.273437 2.21875 2.042969 3.457031 4.953125 3.457031 7.972657v36.820312c0 6.039062 4.882812 10.953125 10.925781 10.972656 0 0 98.667969.347656 98.667969.347656 5.417969-.683593 9.609375-5.3125 9.578125-10.925781l-.152344-36.65625c-.007812-3.007812 1.199219-5.917969 3.40625-7.972656 25.113281-23.546875 40.847656-56.765625 40.53125-87.957031-.800781-79.382813-89.320312-99.582032-89.492188-99.695313zm0 0" fill="#5a5f64"/><path d="m83.964844 286.496094c11.550781 13.976562 38.460937 41.980468 70.292968 44.335937 3.714844.277344 5.03125 5.050781 2.007813 7.226563-24.867187 17.875-88.023437 53.859375-79.371094-49.332032.300781-3.582031 4.78125-5.003906 7.070313-2.230468zm0 0" fill="#ffa90b"/><path d="m253.285156 286.496094c-11.550781 13.976562-38.460937 41.980468-70.292968 44.335937-3.714844.277344-5.03125 5.050781-2.003907 7.226563 24.863281 17.875 88.019531 53.859375 79.367188-49.332032-.300781-3.582031-4.777344-5.003906-7.070313-2.230468zm0 0" fill="#ffa90b"/><path d="m251.933594 414.078125c25.632812-24.019531 43.121094-58.308594 42.945312-93.601563-.980468-96.742187-135.472656-147.394531-214.96875-79.808593-33.351562 28.351562-47.851562 71.5625-29.507812 119.089843 1.515625 3.929688 5.933594 5.886719 9.859375 4.371094 3.933593-1.519531 5.886719-5.933594 4.371093-9.863281-32.316406-83.746094 54.804688-145.421875 131.476563-125.949219 8.472656 2.164063 82.8125 23.160156 83.515625 92.3125.144531 30.65625-15.941406 61.53125-38.121094 82.316406-3.699218 3.464844-5.820312 8.382813-5.820312 13.578126l.160156 36.601562v.066406c0 1.839844-1.496094 3.339844-3.351562 3.339844l-30.472657-.105469v-41.960937c0-4.214844-3.414062-7.628906-7.628906-7.628906-4.210937 0-7.625 3.414062-7.625 7.628906v41.90625l-36.277344-.125v-41.78125c0-4.214844-3.414062-7.628906-7.628906-7.628906-4.210937 0-7.625 3.414062-7.625 7.628906v41.726562l-28.46875-.097656c-1.832031-.007812-3.324219-1.503906-3.324219-3.339844v-36.824218c0-13.273438-9.40625-12.738282-25.417968-36.273438-2.371094-3.484375-7.117188-4.386719-10.601563-2.019531-3.480469 2.371093-4.382813 7.117187-2.015625 10.601562 6.289062 9.242188 13.613281 17.757813 21.773438 25.3125.636718.59375 1.003906 1.457031 1.003906 2.378907v36.824218c0 10.214844 8.3125 18.558594 18.53125 18.59375l125.789062.441406c10.253906 0 18.59375-8.34375 18.59375-18.503906 0-.046875.003906-.121094.003906-.171875-.171874-39.527343-.570312-37.71875.832032-39.035156zm0 0"/><path d="m249.371094 482.175781c-33.691406 15.652344-60.839844 14.539063-77.230469 14.539063-78.992187 0-153.632813-59.746094-156.835937-157.058594-1.074219-36.773438 15.683593-102.300781 25.585937-137.507812 16.679687 32.117187 68.652344 32.578124 81.914063-7.019532 5.308593-15.84375 9.070312-32.105468 11.179687-48.328125.542969-4.175781-2.402344-8.003906-6.578125-8.546875-4.175781-.542968-8.003906 2.402344-8.550781 6.578125-1.984375 15.25-5.523438 30.539063-10.515625 45.453125-10.011719 29.894532-54.847656 26.058594-57.273438-8.710937-.773437-11.058594-16.316406-12.691407-19.472656-2.160157-12.136719 40.570313-32.753906 118.273438-31.5390625 160.582032.0546875 94.839844 77.2304685 171.976562 172.0859375 171.976562 15.402344 0 46.09375 1.496094 83.660156-15.957031 3.820313-1.773437 5.476563-6.3125 3.703125-10.132813-1.773437-3.820312-6.3125-5.480468-10.132812-3.707031zm0 0"/><path d="m362.175781 276.285156c-.148437-9.820312-12.761719-13.359375-18.175781-5.476562-6.921875 10.074218-15.074219 19.382812-24.21875 27.65625-2.675781 2.425781-6.746094-.390625-5.480469-3.726563 23.039063-60.46875 22.390625-123.558593-24.59375-168.445312-6.8125-6.507813-18.164062-.71875-16.714843 8.703125 1.640624 10.710937 1.449218 22.625-1.109376 33.820312-1.464843 6.386719-10.53125 5.894532-11.535156-.414062-12.632812-79.496094-72.949218-129.023438-143.863281-167.1875-7.503906-4.039063-16.292969 2.613281-14.433594 10.933594 3.90625 17.449218 18.894531 52.992187 18.773438 103.210937-.019531 4.226563 3.402343 7.660156 7.628906 7.660156 4.195313 0 7.609375-3.394531 7.625-7.597656.082031-34.523437-6.003906-61.617187-15.84375-94.710937 76.800781 43.519531 115.523437 90.152343 125.046875 150.085937 3.65625 22.984375 36.3125 23.984375 41.472656 1.421875 1.800782-7.886719 2.609375-15.96875 2.550782-23.921875 32.527343 40.121094 29.125 92.761719 10.742187 141.011719-6.972656 18.304687 15.527344 33.535156 29.96875 20.472656 5.394531-4.878906 10.46875-10.089844 15.191406-15.578125l-5.695312 60.40625c-4.273438 45.296875-27.976563 86.460937-65.039063 112.9375-3.429687 2.449219-4.222656 7.214844-1.773437 10.640625 2.449219 3.433594 7.214843 4.222656 10.640625 1.773438 40.660156-29.046876 66.671875-74.214844 71.359375-123.921876 7.902343-83.773437 7.488281-79.109374 7.476562-79.753906zm0 0"/><path d="m160.722656 344.25c8.75-6.296875 4.972656-20.21875-5.902344-21.027344-29.421874-2.179687-55.238281-29.808594-64.972656-41.585937-6.570312-7.957031-19.671875-4.054688-20.550781 6.449219-7.085937 84.410156 34.835937 96.847656 91.425781 56.164062zm-76.800781-46.160156c13.335937 14.660156 34.714844 33.488281 60.238281 38.96875-44.960937 28.75-62.675781 13.695312-60.238281-38.96875zm0 0"/><path d="m267.957031 288.085938c-.882812-10.503907-13.980469-14.402344-20.550781-6.449219-9.734375 11.777343-35.550781 39.410156-64.976562 41.589843-10.933594.8125-14.609376 14.753907-5.894532 21.023438 53.761719 38.652344 98.789063 31.65625 91.421875-56.164062zm-14.628906 10.003906c2.449219 52.878906-15.441406 67.613281-60.238281 38.96875 25.527344-5.480469 46.902344-24.308594 60.238281-38.96875zm0 0"/></svg>